<?xml version="1.0" standalone="no"?>
<!DOCTYPE svg PUBLIC "-//W3C//DTD SVG 20010904//EN"
 "http://www.w3.org/TR/2001/REC-SVG-20010904/DTD/svg10.dtd">
<svg version="1.0" xmlns="http://www.w3.org/2000/svg"
 width="3457.000000pt" height="3457.000000pt" viewBox="0 0 3457.000000 3457.000000"
 preserveAspectRatio="xMidYMid meet">
<metadata>
Created by potrace 1.14, written by Peter Selinger 2001-2017
</metadata>
<g transform="translate(0.000000,3457.000000) scale(0.100000,-0.100000)"
fill="#000000" stroke="none">
<path d="M1620 34385 c-418 -76 -739 -396 -814 -812 -12 -67 -14 -2335 -14
-16208 -1 -11440 2 -16146 10 -16185 42 -217 133 -393 281 -544 130 -133 326
-241 489 -271 13 -3 46 -9 73 -14 33 -7 5529 -9 15790 -8 14707 2 15744 4
15800 19 269 76 473 219 609 428 75 115 113 208 146 355 18 77 18 696 19
16210 1 13941 -1 16141 -14 16210 -59 331 -264 600 -567 742 -83 40 -151 61
-253 78 -119 21 -31442 20 -31555 0z"/>
</g>
</svg>
